<mxfile host="app.diagrams.net" agent="Mozilla/5.0 (iPhone; CPU iPhone OS 18_3_1 like Mac OS X) AppleWebKit/605.1.15 (KHTML, like Gecko) CriOS/133.0.6943.120 Mobile/15E148 Safari/604.1" version="26.0.16">
  <diagram name="Page-1" id="QJklp44X6ehhaURbejfu">
    <mxGraphModel dx="1018" dy="56" grid="0" gridSize="10" guides="1" tooltips="1" connect="1" arrows="1" fold="1" page="0" pageScale="1" pageWidth="827" pageHeight="1169" math="0" shadow="0">
      <root>
        <mxCell id="0" />
        <mxCell id="1" parent="0" />
        <mxCell id="M6WwL6F04pzandGIlEoP-31" value="Object" style="html=1;rounded=0;shadow=0;comic=0;labelBackgroundColor=none;strokeWidth=2;fontFamily=Verdana;fontSize=12;align=center;shape=mxgraph.ios7ui.horLines;" vertex="1" parent="1">
          <mxGeometry x="800.5" y="862" width="135" height="50" as="geometry" />
        </mxCell>
        <mxCell id="M6WwL6F04pzandGIlEoP-32" value="Function" style="swimlane;html=1;fontStyle=0;childLayout=stackLayout;horizontal=1;startSize=26;fillColor=#e0e0e0;horizontalStack=0;resizeParent=1;resizeLast=0;collapsible=1;marginBottom=0;swimlaneFillColor=#ffffff;align=center;rounded=1;shadow=0;comic=0;labelBackgroundColor=none;strokeWidth=1;fontFamily=Verdana;fontSize=12" vertex="1" parent="1">
          <mxGeometry x="788" y="496" width="160" height="110" as="geometry" />
        </mxCell>
        <mxCell id="M6WwL6F04pzandGIlEoP-33" value="Row 1" style="text;html=1;strokeColor=none;fillColor=none;spacingLeft=4;spacingRight=4;whiteSpace=wrap;overflow=hidden;rotatable=0;points=[[0,0.5],[1,0.5]];portConstraint=eastwest;" vertex="1" parent="M6WwL6F04pzandGIlEoP-32">
          <mxGeometry y="26" width="160" height="26" as="geometry" />
        </mxCell>
        <mxCell id="M6WwL6F04pzandGIlEoP-34" value="Row 2" style="text;html=1;strokeColor=none;fillColor=none;spacingLeft=4;spacingRight=4;whiteSpace=wrap;overflow=hidden;rotatable=0;points=[[0,0.5],[1,0.5]];portConstraint=eastwest;" vertex="1" parent="M6WwL6F04pzandGIlEoP-32">
          <mxGeometry y="52" width="160" height="26" as="geometry" />
        </mxCell>
        <mxCell id="M6WwL6F04pzandGIlEoP-35" value="Row 3" style="text;html=1;strokeColor=none;fillColor=none;spacingLeft=4;spacingRight=4;whiteSpace=wrap;overflow=hidden;rotatable=0;points=[[0,0.5],[1,0.5]];portConstraint=eastwest;" vertex="1" parent="M6WwL6F04pzandGIlEoP-32">
          <mxGeometry y="78" width="160" height="26" as="geometry" />
        </mxCell>
        <mxCell id="M6WwL6F04pzandGIlEoP-36" value="Function" style="swimlane;html=1;fontStyle=0;childLayout=stackLayout;horizontal=1;startSize=26;fillColor=#e0e0e0;horizontalStack=0;resizeParent=1;resizeLast=0;collapsible=1;marginBottom=0;swimlaneFillColor=#ffffff;align=center;rounded=1;shadow=0;comic=0;labelBackgroundColor=none;strokeWidth=1;fontFamily=Verdana;fontSize=12" vertex="1" parent="1">
          <mxGeometry x="1188" y="496" width="160" height="130" as="geometry" />
        </mxCell>
        <mxCell id="M6WwL6F04pzandGIlEoP-37" value="Row 1" style="text;html=1;strokeColor=none;fillColor=none;spacingLeft=4;spacingRight=4;whiteSpace=wrap;overflow=hidden;rotatable=0;points=[[0,0.5],[1,0.5]];portConstraint=eastwest;" vertex="1" parent="M6WwL6F04pzandGIlEoP-36">
          <mxGeometry y="26" width="160" height="26" as="geometry" />
        </mxCell>
        <mxCell id="M6WwL6F04pzandGIlEoP-38" value="Row 2" style="text;html=1;strokeColor=none;fillColor=none;spacingLeft=4;spacingRight=4;whiteSpace=wrap;overflow=hidden;rotatable=0;points=[[0,0.5],[1,0.5]];portConstraint=eastwest;" vertex="1" parent="M6WwL6F04pzandGIlEoP-36">
          <mxGeometry y="52" width="160" height="26" as="geometry" />
        </mxCell>
        <mxCell id="M6WwL6F04pzandGIlEoP-39" value="Row 3" style="text;html=1;strokeColor=none;fillColor=none;spacingLeft=4;spacingRight=4;whiteSpace=wrap;overflow=hidden;rotatable=0;points=[[0,0.5],[1,0.5]];portConstraint=eastwest;" vertex="1" parent="M6WwL6F04pzandGIlEoP-36">
          <mxGeometry y="78" width="160" height="26" as="geometry" />
        </mxCell>
        <mxCell id="M6WwL6F04pzandGIlEoP-40" value="Row 4" style="text;html=1;strokeColor=none;fillColor=none;spacingLeft=4;spacingRight=4;whiteSpace=wrap;overflow=hidden;rotatable=0;points=[[0,0.5],[1,0.5]];portConstraint=eastwest;" vertex="1" parent="M6WwL6F04pzandGIlEoP-36">
          <mxGeometry y="104" width="160" height="26" as="geometry" />
        </mxCell>
        <mxCell id="M6WwL6F04pzandGIlEoP-41" value="Function" style="swimlane;html=1;fontStyle=0;childLayout=stackLayout;horizontal=1;startSize=26;fillColor=#e0e0e0;horizontalStack=0;resizeParent=1;resizeLast=0;collapsible=1;marginBottom=0;swimlaneFillColor=#ffffff;align=center;rounded=1;shadow=0;comic=0;labelBackgroundColor=none;strokeWidth=1;fontFamily=Verdana;fontSize=12" vertex="1" parent="1">
          <mxGeometry x="788" y="688" width="160" height="110" as="geometry" />
        </mxCell>
        <mxCell id="M6WwL6F04pzandGIlEoP-42" value="Row 1" style="text;html=1;strokeColor=none;fillColor=none;spacingLeft=4;spacingRight=4;whiteSpace=wrap;overflow=hidden;rotatable=0;points=[[0,0.5],[1,0.5]];portConstraint=eastwest;" vertex="1" parent="M6WwL6F04pzandGIlEoP-41">
          <mxGeometry y="26" width="160" height="26" as="geometry" />
        </mxCell>
        <mxCell id="M6WwL6F04pzandGIlEoP-43" value="Row 2" style="text;html=1;strokeColor=none;fillColor=none;spacingLeft=4;spacingRight=4;whiteSpace=wrap;overflow=hidden;rotatable=0;points=[[0,0.5],[1,0.5]];portConstraint=eastwest;" vertex="1" parent="M6WwL6F04pzandGIlEoP-41">
          <mxGeometry y="52" width="160" height="26" as="geometry" />
        </mxCell>
        <mxCell id="M6WwL6F04pzandGIlEoP-44" value="Row 3" style="text;html=1;strokeColor=none;fillColor=none;spacingLeft=4;spacingRight=4;whiteSpace=wrap;overflow=hidden;rotatable=0;points=[[0,0.5],[1,0.5]];portConstraint=eastwest;" vertex="1" parent="M6WwL6F04pzandGIlEoP-41">
          <mxGeometry y="78" width="160" height="26" as="geometry" />
        </mxCell>
        <mxCell id="M6WwL6F04pzandGIlEoP-45" value="Function" style="swimlane;html=1;fontStyle=0;childLayout=stackLayout;horizontal=1;startSize=26;fillColor=#e0e0e0;horizontalStack=0;resizeParent=1;resizeLast=0;collapsible=1;marginBottom=0;swimlaneFillColor=#ffffff;align=center;rounded=1;shadow=0;comic=0;labelBackgroundColor=none;strokeWidth=1;fontFamily=Verdana;fontSize=12" vertex="1" parent="1">
          <mxGeometry x="788" y="992" width="160" height="140" as="geometry" />
        </mxCell>
        <mxCell id="M6WwL6F04pzandGIlEoP-46" value="Row 1" style="text;html=1;strokeColor=none;fillColor=none;spacingLeft=4;spacingRight=4;whiteSpace=wrap;overflow=hidden;rotatable=0;points=[[0,0.5],[1,0.5]];portConstraint=eastwest;" vertex="1" parent="M6WwL6F04pzandGIlEoP-45">
          <mxGeometry y="26" width="160" height="26" as="geometry" />
        </mxCell>
        <mxCell id="M6WwL6F04pzandGIlEoP-47" value="Row 2" style="text;html=1;strokeColor=none;fillColor=none;spacingLeft=4;spacingRight=4;whiteSpace=wrap;overflow=hidden;rotatable=0;points=[[0,0.5],[1,0.5]];portConstraint=eastwest;" vertex="1" parent="M6WwL6F04pzandGIlEoP-45">
          <mxGeometry y="52" width="160" height="26" as="geometry" />
        </mxCell>
        <mxCell id="M6WwL6F04pzandGIlEoP-48" value="Row 3" style="text;html=1;strokeColor=none;fillColor=none;spacingLeft=4;spacingRight=4;whiteSpace=wrap;overflow=hidden;rotatable=0;points=[[0,0.5],[1,0.5]];portConstraint=eastwest;" vertex="1" parent="M6WwL6F04pzandGIlEoP-45">
          <mxGeometry y="78" width="160" height="26" as="geometry" />
        </mxCell>
        <mxCell id="M6WwL6F04pzandGIlEoP-49" value="Row 4" style="text;html=1;strokeColor=none;fillColor=none;spacingLeft=4;spacingRight=4;whiteSpace=wrap;overflow=hidden;rotatable=0;points=[[0,0.5],[1,0.5]];portConstraint=eastwest;" vertex="1" parent="M6WwL6F04pzandGIlEoP-45">
          <mxGeometry y="104" width="160" height="26" as="geometry" />
        </mxCell>
        <mxCell id="M6WwL6F04pzandGIlEoP-50" value="Function" style="swimlane;html=1;fontStyle=0;childLayout=stackLayout;horizontal=1;startSize=26;fillColor=#e0e0e0;horizontalStack=0;resizeParent=1;resizeLast=0;collapsible=1;marginBottom=0;swimlaneFillColor=#ffffff;align=center;rounded=1;shadow=0;comic=0;labelBackgroundColor=none;strokeWidth=1;fontFamily=Verdana;fontSize=12" vertex="1" parent="1">
          <mxGeometry x="1188" y="688" width="160" height="84" as="geometry" />
        </mxCell>
        <mxCell id="M6WwL6F04pzandGIlEoP-51" value="Row 1" style="text;html=1;strokeColor=none;fillColor=none;spacingLeft=4;spacingRight=4;whiteSpace=wrap;overflow=hidden;rotatable=0;points=[[0,0.5],[1,0.5]];portConstraint=eastwest;" vertex="1" parent="M6WwL6F04pzandGIlEoP-50">
          <mxGeometry y="26" width="160" height="26" as="geometry" />
        </mxCell>
        <mxCell id="M6WwL6F04pzandGIlEoP-52" value="Row 2" style="text;html=1;strokeColor=none;fillColor=none;spacingLeft=4;spacingRight=4;whiteSpace=wrap;overflow=hidden;rotatable=0;points=[[0,0.5],[1,0.5]];portConstraint=eastwest;" vertex="1" parent="M6WwL6F04pzandGIlEoP-50">
          <mxGeometry y="52" width="160" height="26" as="geometry" />
        </mxCell>
        <mxCell id="M6WwL6F04pzandGIlEoP-53" value="Function" style="swimlane;html=1;fontStyle=0;childLayout=stackLayout;horizontal=1;startSize=26;fillColor=#e0e0e0;horizontalStack=0;resizeParent=1;resizeLast=0;collapsible=1;marginBottom=0;swimlaneFillColor=#ffffff;align=center;rounded=1;shadow=0;comic=0;labelBackgroundColor=none;strokeWidth=1;fontFamily=Verdana;fontSize=12" vertex="1" parent="1">
          <mxGeometry x="1188" y="992" width="160" height="110" as="geometry" />
        </mxCell>
        <mxCell id="M6WwL6F04pzandGIlEoP-54" value="Row 1" style="text;html=1;strokeColor=none;fillColor=none;spacingLeft=4;spacingRight=4;whiteSpace=wrap;overflow=hidden;rotatable=0;points=[[0,0.5],[1,0.5]];portConstraint=eastwest;" vertex="1" parent="M6WwL6F04pzandGIlEoP-53">
          <mxGeometry y="26" width="160" height="26" as="geometry" />
        </mxCell>
        <mxCell id="M6WwL6F04pzandGIlEoP-55" value="Row 2" style="text;html=1;strokeColor=none;fillColor=none;spacingLeft=4;spacingRight=4;whiteSpace=wrap;overflow=hidden;rotatable=0;points=[[0,0.5],[1,0.5]];portConstraint=eastwest;" vertex="1" parent="M6WwL6F04pzandGIlEoP-53">
          <mxGeometry y="52" width="160" height="26" as="geometry" />
        </mxCell>
        <mxCell id="M6WwL6F04pzandGIlEoP-56" value="Row 3" style="text;html=1;strokeColor=none;fillColor=none;spacingLeft=4;spacingRight=4;whiteSpace=wrap;overflow=hidden;rotatable=0;points=[[0,0.5],[1,0.5]];portConstraint=eastwest;" vertex="1" parent="M6WwL6F04pzandGIlEoP-53">
          <mxGeometry y="78" width="160" height="26" as="geometry" />
        </mxCell>
        <mxCell id="M6WwL6F04pzandGIlEoP-57" value="Object" style="html=1;rounded=0;shadow=0;comic=0;labelBackgroundColor=none;strokeWidth=2;fontFamily=Verdana;fontSize=12;align=center;shape=mxgraph.ios7ui.horLines;" vertex="1" parent="1">
          <mxGeometry x="1008" y="862" width="135" height="50" as="geometry" />
        </mxCell>
        <mxCell id="M6WwL6F04pzandGIlEoP-58" style="edgeStyle=none;html=1;labelBackgroundColor=none;startFill=0;startSize=8;endFill=1;endSize=8;fontFamily=Verdana;fontSize=12;rounded=0;curved=1;" edge="1" parent="1" source="M6WwL6F04pzandGIlEoP-45" target="M6WwL6F04pzandGIlEoP-31">
          <mxGeometry relative="1" as="geometry" />
        </mxCell>
        <mxCell id="M6WwL6F04pzandGIlEoP-59" style="edgeStyle=none;html=1;labelBackgroundColor=none;startFill=0;startSize=8;endFill=1;endSize=8;fontFamily=Verdana;fontSize=12;rounded=0;curved=1;" edge="1" parent="1" source="M6WwL6F04pzandGIlEoP-31" target="M6WwL6F04pzandGIlEoP-41">
          <mxGeometry relative="1" as="geometry" />
        </mxCell>
        <mxCell id="M6WwL6F04pzandGIlEoP-60" style="edgeStyle=orthogonalEdgeStyle;html=1;labelBackgroundColor=none;startFill=0;startSize=8;endFill=1;endSize=8;fontFamily=Verdana;fontSize=12;exitX=1;exitY=0.25;entryX=1;entryY=0.5;rounded=0;curved=1;" edge="1" parent="1" source="M6WwL6F04pzandGIlEoP-45" target="M6WwL6F04pzandGIlEoP-44">
          <mxGeometry relative="1" as="geometry">
            <Array as="points">
              <mxPoint x="978" y="1027" />
              <mxPoint x="978" y="779" />
            </Array>
          </mxGeometry>
        </mxCell>
        <mxCell id="M6WwL6F04pzandGIlEoP-61" value="" style="edgeStyle=orthogonalEdgeStyle;html=1;labelBackgroundColor=none;startFill=0;startSize=8;endFill=1;endSize=8;fontFamily=Verdana;fontSize=12;rounded=0;curved=1;" edge="1" parent="1" source="M6WwL6F04pzandGIlEoP-57" target="M6WwL6F04pzandGIlEoP-54">
          <mxGeometry x="-0.1342" y="32" relative="1" as="geometry">
            <mxPoint as="offset" />
          </mxGeometry>
        </mxCell>
        <mxCell id="M6WwL6F04pzandGIlEoP-62" style="edgeStyle=orthogonalEdgeStyle;html=1;labelBackgroundColor=none;startFill=0;startSize=8;endFill=1;endSize=8;fontFamily=Verdana;fontSize=12;rounded=0;curved=1;" edge="1" parent="1" source="M6WwL6F04pzandGIlEoP-41" target="M6WwL6F04pzandGIlEoP-57">
          <mxGeometry relative="1" as="geometry">
            <Array as="points">
              <mxPoint x="1076" y="762" />
            </Array>
          </mxGeometry>
        </mxCell>
        <mxCell id="M6WwL6F04pzandGIlEoP-63" style="edgeStyle=orthogonalEdgeStyle;html=1;labelBackgroundColor=none;startFill=0;startSize=8;endFill=1;endSize=8;fontFamily=Verdana;fontSize=12;rounded=0;curved=1;" edge="1" parent="1" source="M6WwL6F04pzandGIlEoP-32" target="M6WwL6F04pzandGIlEoP-41">
          <mxGeometry relative="1" as="geometry" />
        </mxCell>
        <mxCell id="M6WwL6F04pzandGIlEoP-64" style="edgeStyle=orthogonalEdgeStyle;html=1;labelBackgroundColor=none;startFill=0;startSize=8;endFill=1;endSize=8;fontFamily=Verdana;fontSize=12;rounded=0;curved=1;" edge="1" parent="1" source="M6WwL6F04pzandGIlEoP-53" target="M6WwL6F04pzandGIlEoP-50">
          <mxGeometry relative="1" as="geometry" />
        </mxCell>
        <mxCell id="M6WwL6F04pzandGIlEoP-65" style="edgeStyle=orthogonalEdgeStyle;html=1;labelBackgroundColor=none;startFill=0;startSize=8;endFill=1;endSize=8;fontFamily=Verdana;fontSize=12;rounded=0;curved=1;" edge="1" parent="1" source="M6WwL6F04pzandGIlEoP-36" target="M6WwL6F04pzandGIlEoP-50">
          <mxGeometry relative="1" as="geometry" />
        </mxCell>
        <mxCell id="M6WwL6F04pzandGIlEoP-66" style="edgeStyle=orthogonalEdgeStyle;html=1;entryX=0;entryY=0.5;labelBackgroundColor=none;startFill=0;startSize=8;endFill=1;endSize=8;fontFamily=Verdana;fontSize=12;exitX=1;exitY=0.5;rounded=0;curved=1;" edge="1" parent="1" source="M6WwL6F04pzandGIlEoP-34" target="M6WwL6F04pzandGIlEoP-38">
          <mxGeometry relative="1" as="geometry">
            <Array as="points" />
          </mxGeometry>
        </mxCell>
        <mxCell id="M6WwL6F04pzandGIlEoP-67" style="edgeStyle=orthogonalEdgeStyle;html=1;exitX=0;exitY=0.5;entryX=1;entryY=0.5;labelBackgroundColor=none;startFill=0;startSize=8;endFill=1;endSize=8;fontFamily=Verdana;fontSize=12;rounded=0;curved=1;" edge="1" parent="1" source="M6WwL6F04pzandGIlEoP-37" target="M6WwL6F04pzandGIlEoP-33">
          <mxGeometry relative="1" as="geometry" />
        </mxCell>
        <mxCell id="M6WwL6F04pzandGIlEoP-68" style="edgeStyle=orthogonalEdgeStyle;html=1;exitX=1;exitY=0.5;entryX=0.125;entryY=0.846;labelBackgroundColor=none;startFill=0;startSize=8;endFill=1;endSize=8;fontFamily=Verdana;fontSize=12;rounded=0;curved=1;entryDx=0;entryDy=0;entryPerimeter=0;" edge="1" parent="1" source="M6WwL6F04pzandGIlEoP-35" target="M6WwL6F04pzandGIlEoP-51">
          <mxGeometry relative="1" as="geometry" />
        </mxCell>
        <mxCell id="M6WwL6F04pzandGIlEoP-69" style="edgeStyle=orthogonalEdgeStyle;html=1;exitX=1;exitY=0.5;entryX=0;entryY=0.5;labelBackgroundColor=none;startFill=0;startSize=8;endFill=1;endSize=8;fontFamily=Verdana;fontSize=12;rounded=0;curved=1;" edge="1" parent="1" source="M6WwL6F04pzandGIlEoP-43" target="M6WwL6F04pzandGIlEoP-52">
          <mxGeometry relative="1" as="geometry">
            <Array as="points" />
          </mxGeometry>
        </mxCell>
        <mxCell id="M6WwL6F04pzandGIlEoP-70" style="edgeStyle=orthogonalEdgeStyle;html=1;labelBackgroundColor=none;startFill=0;startSize=8;endFill=1;endSize=8;fontFamily=Verdana;fontSize=12;rounded=0;curved=1;" edge="1" parent="1" source="M6WwL6F04pzandGIlEoP-52">
          <mxGeometry relative="1" as="geometry">
            <mxPoint x="1508" y="753" as="targetPoint" />
          </mxGeometry>
        </mxCell>
        <mxCell id="M6WwL6F04pzandGIlEoP-71" style="edgeStyle=orthogonalEdgeStyle;html=1;exitX=1;exitY=0.5;labelBackgroundColor=none;startFill=0;startSize=8;endFill=1;endSize=8;fontFamily=Verdana;fontSize=12;rounded=0;curved=1;" edge="1" parent="1" source="M6WwL6F04pzandGIlEoP-54">
          <mxGeometry relative="1" as="geometry">
            <mxPoint x="1508" y="1031" as="targetPoint" />
          </mxGeometry>
        </mxCell>
        <mxCell id="M6WwL6F04pzandGIlEoP-72" style="edgeStyle=orthogonalEdgeStyle;html=1;labelBackgroundColor=none;startFill=0;startSize=8;endFill=1;endSize=8;fontFamily=Verdana;fontSize=12;entryX=1;entryY=0.5;rounded=0;curved=1;" edge="1" parent="1" target="M6WwL6F04pzandGIlEoP-55">
          <mxGeometry relative="1" as="geometry">
            <mxPoint x="1518" y="1041" as="targetPoint" />
            <mxPoint x="1508" y="1057" as="sourcePoint" />
            <Array as="points">
              <mxPoint x="1508" y="1057" />
            </Array>
          </mxGeometry>
        </mxCell>
        <mxCell id="M6WwL6F04pzandGIlEoP-73" style="edgeStyle=orthogonalEdgeStyle;html=1;labelBackgroundColor=none;startFill=0;startSize=8;endFill=1;endSize=8;fontFamily=Verdana;fontSize=12;entryX=1;entryY=0.5;rounded=0;curved=1;" edge="1" parent="1" target="M6WwL6F04pzandGIlEoP-56">
          <mxGeometry relative="1" as="geometry">
            <mxPoint x="1358.1904761904761" y="1067.095238095238" as="targetPoint" />
            <mxPoint x="1508" y="1083" as="sourcePoint" />
            <Array as="points">
              <mxPoint x="1428" y="1083" />
              <mxPoint x="1428" y="1083" />
            </Array>
          </mxGeometry>
        </mxCell>
        <mxCell id="M6WwL6F04pzandGIlEoP-74" style="edgeStyle=orthogonalEdgeStyle;html=1;exitX=1;exitY=0.5;labelBackgroundColor=none;startFill=0;startSize=8;endFill=1;endSize=8;fontFamily=Verdana;fontSize=12;rounded=0;curved=1;" edge="1" parent="1" source="M6WwL6F04pzandGIlEoP-37">
          <mxGeometry relative="1" as="geometry">
            <mxPoint x="1508" y="535" as="targetPoint" />
          </mxGeometry>
        </mxCell>
        <mxCell id="M6WwL6F04pzandGIlEoP-75" style="edgeStyle=orthogonalEdgeStyle;html=1;exitX=1;exitY=0.5;labelBackgroundColor=none;startFill=0;startSize=8;endFill=1;endSize=8;fontFamily=Verdana;fontSize=12;rounded=0;curved=1;" edge="1" parent="1" source="M6WwL6F04pzandGIlEoP-38">
          <mxGeometry relative="1" as="geometry">
            <mxPoint x="1508" y="561" as="targetPoint" />
          </mxGeometry>
        </mxCell>
        <mxCell id="M6WwL6F04pzandGIlEoP-76" style="edgeStyle=orthogonalEdgeStyle;html=1;exitX=1;exitY=0.5;labelBackgroundColor=none;startFill=0;startSize=8;endFill=1;endSize=8;fontFamily=Verdana;fontSize=12;rounded=0;curved=1;" edge="1" parent="1" source="M6WwL6F04pzandGIlEoP-39">
          <mxGeometry relative="1" as="geometry">
            <mxPoint x="1508" y="587" as="targetPoint" />
            <Array as="points" />
          </mxGeometry>
        </mxCell>
        <mxCell id="M6WwL6F04pzandGIlEoP-77" style="edgeStyle=elbowEdgeStyle;html=1;labelBackgroundColor=none;startFill=0;startSize=8;endFill=1;endSize=8;fontFamily=Verdana;fontSize=12;elbow=vertical;entryX=1.011;entryY=0.152;entryPerimeter=0;rounded=0;curved=1;" edge="1" parent="1" target="M6WwL6F04pzandGIlEoP-36">
          <mxGeometry relative="1" as="geometry">
            <mxPoint x="1368" y="511" as="targetPoint" />
            <mxPoint x="1508" y="516" as="sourcePoint" />
            <Array as="points">
              <mxPoint x="1438" y="516" />
            </Array>
          </mxGeometry>
        </mxCell>
      </root>
    </mxGraphModel>
  </diagram>
</mxfile>
